<?xml version="1.0" encoding="UTF-8" standalone="no"?>
<svg
   data-name="Sea Turtle"
   id="Sea_Turtle"
   viewBox="0 0 64 64"
   version="1.1"
   sodipodi:docname="turtle_animal_ocean_reptile_sea_icon.svg"
   inkscape:version="1.3 (0e150ed6c4, 2023-07-21)"
   xmlns:inkscape="http://www.inkscape.org/namespaces/inkscape"
   xmlns:sodipodi="http://sodipodi.sourceforge.net/DTD/sodipodi-0.dtd"
   xmlns="http://www.w3.org/2000/svg"
   xmlns:svg="http://www.w3.org/2000/svg">
  <defs
     id="defs1" />
  <sodipodi:namedview
     id="namedview1"
     pagecolor="#ffffff"
     bordercolor="#000000"
     borderopacity="0.25"
     inkscape:showpageshadow="2"
     inkscape:pageopacity="0.0"
     inkscape:pagecheckerboard="0"
     inkscape:deskcolor="#d1d1d1"
     showgrid="false"
     inkscape:zoom="19.609375"
     inkscape:cx="31.974502"
     inkscape:cy="32"
     inkscape:window-width="2560"
     inkscape:window-height="1511"
     inkscape:window-x="-9"
     inkscape:window-y="-9"
     inkscape:window-maximized="1"
     inkscape:current-layer="Sea_Turtle" />
  <path
     d="m 51.1698,19.871235 a 7.35,7.35 0 0 0 -4.43,1.5 19.61,19.61 0 0 0 -35.999999,10 3.34,3.34 0 0 0 0.55,6.44 16.9,16.9 0 0 0 -1.3800003,7.42 2.17,2.17 0 0 0 0.7200003,1.59 2.09,2.09 0 0 0 1.44,0.59 h 0.12 c 2.14,-0.12 7.089999,-1.09 11.589999,-6.77 a 34.59,34.59 0 0 0 7.55,1.18 c 0.83,0 1.64,-0.06 2.46,-0.12 a 22.52,22.52 0 0 0 -0.24,3.56 2.24,2.24 0 0 0 0.72,1.59 2.12,2.12 0 0 0 1.45,0.58 h 0.12 c 2.45,-0.15 8.6,-1.39 13.53,-9.6 a 3.36,3.36 0 0 0 2.77,-3.3 v 0 a 7.36,7.36 0 0 0 -1,-14.66 z m -19.81,11.31 v -7.47 l 6.5,-2.5 4.32,5.67 -2.35,4.29 z m -18.069999,-3.39 h 3.47 l 1.849999,3.39 h -5.389999 c 0,0 0,0 -0.06,0 h -0.39 a 17.33,17.33 0 0 1 0.52,-3.39 z m 7.599999,3.39 -2.34,-4.3 4.32,-5.67 6.5,2.5 v 7.47 z m 23.07,-3.39 h 3.47 a 17.91,17.91 0 0 1 0.52,3.38 h -5.84 z m 2.83,-2 h -2.93 l -4.66,-6.12 v -2.68 a 17.68,17.68 0 0 1 7.59,8.8 z m -9.59,-9.87 v 3.4 c 0,0 -6.78,2.53 -6.84,2.53 -0.06,0 -6.81,-2.53 -6.81,-2.53 v -3.4 a 17.52,17.52 0 0 1 13.68,0 z m -15.65,1.07 v 2.73 l -4.689999,6.07 h -2.93 a 17.64,17.64 0 0 1 7.619999,-8.8 z m -9.449999,28.46 v 0 a 0.19,0.19 0 0 1 -0.08,-0.05 0.24,0.24 0 0 1 -0.08,-0.16 c 0,-1.53 0.11,-5.18 1.67,-7.33 H 23.3498 c -4.3,6.41 -9.229999,7.42 -11.249999,7.54 z m 19.249999,-5.6 a 31.26,31.26 0 0 1 -6.27,-0.92 l 0.63,-1 h 9.22 a 11.3,11.3 0 0 0 -0.7,1.81 c -0.95,0.05 -1.91,0.11 -2.88,0.11 z m 4.4,5.58 a 0.2,0.2 0 0 1 -0.09,0 0.3,0.3 0 0 1 -0.08,-0.16 c 0,-1.54 0.12,-5.18 1.68,-7.33 h 9.74 c -4.29,6.37 -9.23,7.37 -11.25,7.49 z m 13.06,-9.54 H 11.909801 a 1.36,1.36 0 0 1 0,-2.72 c 25.669999,0 30.749999,0 36.899999,0 a 1.36,1.36 0 0 1 0,2.72 z m 2.74,-3.3 a 3.39,3.39 0 0 0 -1.58,-1.21 19,19 0 0 0 -2.19,-8.27 5.36,5.36 0 1 1 3.77,9.48 z"
     id="path1"
     style="fill:#0096a8;fill-opacity:1" />
</svg>
